<?xml version="1.0" standalone="no"?>
<!DOCTYPE svg PUBLIC "-//W3C//DTD SVG 20010904//EN"
 "http://www.w3.org/TR/2001/REC-SVG-20010904/DTD/svg10.dtd">
<svg version="1.0" xmlns="http://www.w3.org/2000/svg"
 width="1024.000000pt" height="1024.000000pt" viewBox="0 0 1024.000000 1024.000000"
 preserveAspectRatio="xMidYMid meet">
<metadata>
Created by potrace 1.14, written by Peter Selinger 2001-2017
</metadata>
<g transform="translate(0.000000,1024.000000) scale(0.100000,-0.100000)"
fill="#000000" stroke="none">
<path d="M3715 7369 c-199 -10 -319 -28 -430 -64 -102 -34 -228 -92 -301 -141
-191 -127 -346 -349 -411 -590 -25 -91 -27 -114 -27 -284 0 -167 3 -194 26
-281 50 -184 111 -305 231 -453 155 -193 451 -388 912 -601 675 -312 911 -467
1009 -665 114 -233 96 -492 -46 -646 -55 -60 -136 -107 -246 -144 -176 -59
-207 -60 -1077 -59 l-790 1 -147 -283 -147 -284 942 -3 c983 -3 1125 1 1312
39 397 80 691 347 825 749 58 176 72 340 44 527 -55 376 -249 660 -614 902
-124 82 -259 155 -681 366 -289 146 -566 291 -615 323 -257 169 -370 377 -335
617 31 204 144 326 366 392 57 17 183 18 2295 21 l2235 2 60 128 c32 70 90
190 127 267 37 76 70 147 74 157 5 17 -81 18 -2208 17 -1217 -1 -2289 -6
-2383 -10z"/>
<path d="M5146 6513 c73 -142 176 -338 444 -853 367 -705 700 -1349 700 -1355
0 -13 -481 -974 -550 -1101 -95 -172 -160 -302 -160 -321 0 -11 55 -13 288
-11 l287 3 33 65 c18 36 87 180 153 320 66 140 185 388 264 550 145 300 189
390 345 720 180 381 176 371 638 1325 88 182 212 437 275 568 l116 237 -297 0
-298 0 -31 -72 c-31 -72 -195 -431 -358 -783 -46 -99 -117 -256 -158 -350
-110 -249 -241 -537 -258 -562 -7 -13 -17 -23 -21 -23 -3 0 -207 403 -452 895
l-445 895 -295 0 -296 0 76 -147z"/>
</g>
</svg>
